<mxfile host="app.diagrams.net" modified="2021-05-18T16:07:06.076Z" agent="5.0 (Macintosh)" etag="dYTuBGszTwZ5GngZC2Ep" version="14.6.13" type="gitlab">
  <diagram id="6a731a19-8d31-9384-78a2-239565b7b9f0" name="Page-1">
    <mxGraphModel dx="946" dy="542" grid="1" gridSize="10" guides="1" tooltips="1" connect="1" arrows="1" fold="1" page="1" pageScale="1" pageWidth="1169" pageHeight="827" background="#ffffff" math="0" shadow="0">
      <root>
        <mxCell id="0" />
        <mxCell id="1" parent="0" />
        <mxCell id="2" value="start" style="shape=mxgraph.flowchart.terminator;strokeWidth=2;gradientColor=none;gradientDirection=north;fontStyle=0;html=1;" parent="1" vertex="1">
          <mxGeometry x="570" y="50" width="120" height="30" as="geometry" />
        </mxCell>
        <mxCell id="17" value="" style="edgeStyle=elbowEdgeStyle;elbow=horizontal;fontStyle=1;strokeColor=#003366;strokeWidth=1;html=1;" parent="1" target="13" edge="1">
          <mxGeometry width="100" height="100" as="geometry">
            <mxPoint x="320" y="590" as="sourcePoint" />
            <mxPoint x="100" as="targetPoint" />
          </mxGeometry>
        </mxCell>
        <mxCell id="40" value="end" style="shape=mxgraph.flowchart.terminator;strokeWidth=2;gradientColor=none;gradientDirection=north;fontStyle=0;html=1;" parent="1" vertex="1">
          <mxGeometry x="260" y="1910" width="120" height="30" as="geometry" />
        </mxCell>
        <mxCell id="AtFEPGN6vsKOQ2UmHJIi-62" value="Non-imaging covariates and predictors" style="shape=document;whiteSpace=wrap;html=1;boundedLbl=1;fillColor=#dae8fc;strokeColor=#6c8ebf;" vertex="1" parent="1">
          <mxGeometry x="25" y="290" width="120" height="80" as="geometry" />
        </mxCell>
        <mxCell id="AtFEPGN6vsKOQ2UmHJIi-63" value="Data Dictonary" style="shape=document;whiteSpace=wrap;html=1;boundedLbl=1;fillColor=#e1d5e7;strokeColor=#9673a6;" vertex="1" parent="1">
          <mxGeometry x="25" y="370" width="120" height="80" as="geometry" />
        </mxCell>
        <mxCell id="AtFEPGN6vsKOQ2UmHJIi-64" value="Model Design Table" style="shape=document;whiteSpace=wrap;html=1;boundedLbl=1;fillColor=#e1d5e7;strokeColor=#9673a6;" vertex="1" parent="1">
          <mxGeometry x="25" y="450" width="120" height="80" as="geometry" />
        </mxCell>
        <mxCell id="AtFEPGN6vsKOQ2UmHJIi-86" style="edgeStyle=orthogonalEdgeStyle;rounded=0;orthogonalLoop=1;jettySize=auto;html=1;" edge="1" parent="1" source="AtFEPGN6vsKOQ2UmHJIi-65">
          <mxGeometry relative="1" as="geometry">
            <mxPoint x="170" y="160" as="targetPoint" />
          </mxGeometry>
        </mxCell>
        <mxCell id="AtFEPGN6vsKOQ2UmHJIi-65" value="&lt;font color=&quot;#FFFFFF&quot;&gt;Settings&lt;/font&gt;" style="shape=document;whiteSpace=wrap;html=1;boundedLbl=1;strokeColor=#9673a6;fillColor=#000000;" vertex="1" parent="1">
          <mxGeometry x="25" y="530" width="120" height="80" as="geometry" />
        </mxCell>
        <mxCell id="AtFEPGN6vsKOQ2UmHJIi-66" value="" style="group" vertex="1" connectable="0" parent="1">
          <mxGeometry x="10" y="80" width="150" height="110" as="geometry" />
        </mxCell>
        <mxCell id="AtFEPGN6vsKOQ2UmHJIi-55" value="" style="shape=document;whiteSpace=wrap;html=1;boundedLbl=1;fillColor=#d5e8d4;strokeColor=#82b366;" vertex="1" parent="AtFEPGN6vsKOQ2UmHJIi-66">
          <mxGeometry width="120" height="80" as="geometry" />
        </mxCell>
        <mxCell id="AtFEPGN6vsKOQ2UmHJIi-56" value="" style="shape=document;whiteSpace=wrap;html=1;boundedLbl=1;fillColor=#d5e8d4;strokeColor=#82b366;" vertex="1" parent="AtFEPGN6vsKOQ2UmHJIi-66">
          <mxGeometry width="120" height="80" as="geometry" />
        </mxCell>
        <mxCell id="AtFEPGN6vsKOQ2UmHJIi-57" value="" style="shape=document;whiteSpace=wrap;html=1;boundedLbl=1;fillColor=#d5e8d4;strokeColor=#82b366;" vertex="1" parent="AtFEPGN6vsKOQ2UmHJIi-66">
          <mxGeometry width="120" height="80" as="geometry" />
        </mxCell>
        <mxCell id="AtFEPGN6vsKOQ2UmHJIi-58" value="" style="shape=document;whiteSpace=wrap;html=1;boundedLbl=1;fillColor=#d5e8d4;strokeColor=#82b366;" vertex="1" parent="AtFEPGN6vsKOQ2UmHJIi-66">
          <mxGeometry width="120" height="80" as="geometry" />
        </mxCell>
        <mxCell id="AtFEPGN6vsKOQ2UmHJIi-59" value="" style="shape=document;whiteSpace=wrap;html=1;boundedLbl=1;fillColor=#d5e8d4;strokeColor=#82b366;" vertex="1" parent="AtFEPGN6vsKOQ2UmHJIi-66">
          <mxGeometry x="10" y="10" width="120" height="80" as="geometry" />
        </mxCell>
        <mxCell id="AtFEPGN6vsKOQ2UmHJIi-60" value="" style="shape=document;whiteSpace=wrap;html=1;boundedLbl=1;fillColor=#d5e8d4;strokeColor=#82b366;" vertex="1" parent="AtFEPGN6vsKOQ2UmHJIi-66">
          <mxGeometry x="20" y="20" width="120" height="80" as="geometry" />
        </mxCell>
        <mxCell id="AtFEPGN6vsKOQ2UmHJIi-61" value="Imaging data" style="shape=document;whiteSpace=wrap;html=1;boundedLbl=1;fillColor=#d5e8d4;strokeColor=#82b366;" vertex="1" parent="AtFEPGN6vsKOQ2UmHJIi-66">
          <mxGeometry x="30" y="30" width="120" height="80" as="geometry" />
        </mxCell>
        <mxCell id="AtFEPGN6vsKOQ2UmHJIi-79" style="edgeStyle=orthogonalEdgeStyle;rounded=0;orthogonalLoop=1;jettySize=auto;html=1;exitX=1;exitY=0.5;exitDx=0;exitDy=0;entryX=0;entryY=0.5;entryDx=0;entryDy=0;" edge="1" parent="1" source="AtFEPGN6vsKOQ2UmHJIi-67" target="AtFEPGN6vsKOQ2UmHJIi-76">
          <mxGeometry relative="1" as="geometry">
            <mxPoint x="320" y="120" as="targetPoint" />
            <Array as="points">
              <mxPoint x="310" y="110" />
              <mxPoint x="310" y="170" />
            </Array>
          </mxGeometry>
        </mxCell>
        <mxCell id="AtFEPGN6vsKOQ2UmHJIi-67" value="Cifti2mat" style="shape=process;whiteSpace=wrap;html=1;backgroundOutline=1;fillColor=#ffe6cc;strokeColor=#d79b00;" vertex="1" parent="1">
          <mxGeometry x="180" y="80" width="120" height="60" as="geometry" />
        </mxCell>
        <mxCell id="AtFEPGN6vsKOQ2UmHJIi-78" style="edgeStyle=orthogonalEdgeStyle;rounded=0;orthogonalLoop=1;jettySize=auto;html=1;entryX=0;entryY=0.5;entryDx=0;entryDy=0;" edge="1" parent="1" source="AtFEPGN6vsKOQ2UmHJIi-72" target="AtFEPGN6vsKOQ2UmHJIi-76">
          <mxGeometry relative="1" as="geometry">
            <mxPoint x="390" y="260" as="targetPoint" />
            <Array as="points">
              <mxPoint x="310" y="220" />
              <mxPoint x="310" y="170" />
            </Array>
          </mxGeometry>
        </mxCell>
        <mxCell id="AtFEPGN6vsKOQ2UmHJIi-72" value="csv2mat" style="shape=process;whiteSpace=wrap;html=1;backgroundOutline=1;fillColor=#ffe6cc;strokeColor=#d79b00;" vertex="1" parent="1">
          <mxGeometry x="180" y="190" width="120" height="60" as="geometry" />
        </mxCell>
        <mxCell id="AtFEPGN6vsKOQ2UmHJIi-75" value="&lt;font color=&quot;#FFFFFF&quot;&gt;parse external data&lt;/font&gt;" style="shape=process;whiteSpace=wrap;html=1;backgroundOutline=1;strokeColor=#36393d;fillColor=#A1A1A1;" vertex="1" parent="1">
          <mxGeometry x="190" y="330" width="120" height="60" as="geometry" />
        </mxCell>
        <mxCell id="AtFEPGN6vsKOQ2UmHJIi-76" value="&lt;font color=&quot;#FFFFFF&quot;&gt;fconn2table&lt;/font&gt;" style="shape=process;whiteSpace=wrap;html=1;backgroundOutline=1;strokeColor=#36393d;fillColor=#A1A1A1;" vertex="1" parent="1">
          <mxGeometry x="320" y="137" width="120" height="60" as="geometry" />
        </mxCell>
        <mxCell id="AtFEPGN6vsKOQ2UmHJIi-77" style="edgeStyle=orthogonalEdgeStyle;rounded=0;orthogonalLoop=1;jettySize=auto;html=1;" edge="1" parent="1" source="AtFEPGN6vsKOQ2UmHJIi-61">
          <mxGeometry relative="1" as="geometry">
            <mxPoint x="320" y="170" as="targetPoint" />
            <Array as="points">
              <mxPoint x="280" y="160" />
              <mxPoint x="280" y="160" />
            </Array>
          </mxGeometry>
        </mxCell>
        <mxCell id="AtFEPGN6vsKOQ2UmHJIi-80" value="&lt;font color=&quot;#FFFFFF&quot;&gt;BWASmodel&lt;/font&gt;" style="shape=process;whiteSpace=wrap;html=1;backgroundOutline=1;strokeColor=#36393d;fillColor=#A1A1A1;" vertex="1" parent="1">
          <mxGeometry x="510" y="480" width="120" height="60" as="geometry" />
        </mxCell>
        <mxCell id="AtFEPGN6vsKOQ2UmHJIi-81" value="&lt;font color=&quot;#FFFFFF&quot;&gt;parse design&lt;br&gt;model&lt;/font&gt;" style="shape=process;whiteSpace=wrap;html=1;backgroundOutline=1;strokeColor=#36393d;fillColor=#A1A1A1;" vertex="1" parent="1">
          <mxGeometry x="420" y="380" width="120" height="60" as="geometry" />
        </mxCell>
        <mxCell id="AtFEPGN6vsKOQ2UmHJIi-83" style="edgeStyle=orthogonalEdgeStyle;rounded=0;orthogonalLoop=1;jettySize=auto;html=1;entryX=0.5;entryY=1;entryDx=0;entryDy=0;" edge="1" parent="1" source="AtFEPGN6vsKOQ2UmHJIi-61" target="AtFEPGN6vsKOQ2UmHJIi-67">
          <mxGeometry relative="1" as="geometry" />
        </mxCell>
        <mxCell id="AtFEPGN6vsKOQ2UmHJIi-84" style="edgeStyle=orthogonalEdgeStyle;rounded=0;orthogonalLoop=1;jettySize=auto;html=1;entryX=0.5;entryY=0;entryDx=0;entryDy=0;" edge="1" parent="1" source="AtFEPGN6vsKOQ2UmHJIi-61" target="AtFEPGN6vsKOQ2UmHJIi-72">
          <mxGeometry relative="1" as="geometry">
            <Array as="points">
              <mxPoint x="240" y="160" />
            </Array>
          </mxGeometry>
        </mxCell>
      </root>
    </mxGraphModel>
  </diagram>
</mxfile>
